<svg width="40" height="40" viewBox="0 0 40 40" fill="none" xmlns="http://www.w3.org/2000/svg">
<rect width="40" height="40" rx="20" fill="#FF3E79"/>
<path fill-rule="evenodd" clip-rule="evenodd" d="M13.7931 12.2568C13.4026 11.8662 12.7694 11.8662 12.3789 12.2568L12.2568 12.3789C11.8662 12.7694 11.8662 13.4026 12.2568 13.7931L18.4633 19.9996L12.2568 26.2062C11.8662 26.5967 11.8662 27.2299 12.2568 27.6204L12.3789 27.7425C12.7694 28.1331 13.4026 28.1331 13.7931 27.7425L19.9996 21.536L26.2062 27.7425C26.5967 28.1331 27.2299 28.1331 27.6204 27.7425L27.7425 27.6204C28.1331 27.2299 28.1331 26.5967 27.7425 26.2062L21.536 19.9996L27.7425 13.7931C28.1331 13.4026 28.1331 12.7694 27.7425 12.3789L27.6204 12.2568C27.2299 11.8662 26.5967 11.8662 26.2062 12.2568L19.9996 18.4633L13.7931 12.2568Z" fill="white"/>
</svg>
